<svg xmlns="http://www.w3.org/2000/svg" height="590pt" version="1.1" viewBox="0 -32 590.47683 590" width="590pt">
<g id="surface1">
<path d="M 586.585938 510.769531 L 13.640625 2.382812 C 10.359375 -0.667969 5.222656 -0.480469 2.171875 2.800781 C 0.699219 4.386719 -0.0820312 6.496094 0.0078125 8.660156 L 0.0078125 517.316406 C 0.0078125 521.796875 3.644531 525.433594 8.121094 525.433594 L 581.824219 525.433594 C 586.304688 525.464844 589.964844 521.855469 590 517.375 C 590.023438 514.632812 588.652344 512.066406 586.367188 510.550781 Z M 481.171875 509.417969 L 481.171875 471.160156 C 481.171875 466.679688 477.539062 463.042969 473.058594 463.042969 C 468.578125 463.042969 464.941406 466.679688 464.941406 471.160156 L 464.941406 509.417969 L 438.480469 509.417969 L 438.480469 486.636719 C 438.480469 482.15625 434.84375 478.519531 430.363281 478.519531 C 425.882812 478.519531 422.246094 482.15625 422.246094 486.636719 L 422.246094 509.417969 L 399.25 509.417969 L 399.25 471.160156 C 399.25 466.679688 395.613281 463.042969 391.132812 463.042969 C 386.652344 463.042969 383.015625 466.679688 383.015625 471.160156 L 383.015625 509.417969 L 356.609375 509.417969 L 356.609375 486.636719 C 356.609375 482.15625 352.972656 478.519531 348.492188 478.519531 C 344.011719 478.519531 340.378906 482.15625 340.378906 486.636719 L 340.378906 509.417969 L 317.378906 509.417969 L 317.378906 471.160156 C 317.378906 466.679688 313.742188 463.042969 309.261719 463.042969 C 304.78125 463.042969 301.148438 466.679688 301.148438 471.160156 L 301.148438 509.417969 L 274.6875 509.417969 L 274.6875 486.636719 C 274.6875 482.15625 271.050781 478.519531 266.570312 478.519531 C 262.089844 478.519531 258.453125 482.15625 258.453125 486.636719 L 258.453125 509.417969 L 235.511719 509.417969 L 235.511719 471.160156 C 235.511719 466.679688 231.875 463.042969 227.394531 463.042969 C 222.914062 463.042969 219.277344 466.679688 219.277344 471.160156 L 219.277344 509.417969 L 192.761719 509.417969 L 192.761719 486.636719 C 192.761719 482.15625 189.125 478.519531 184.644531 478.519531 C 180.164062 478.519531 176.527344 482.15625 176.527344 486.636719 L 176.527344 509.417969 L 153.585938 509.417969 L 153.585938 471.160156 C 153.585938 466.679688 149.949219 463.042969 145.46875 463.042969 C 140.988281 463.042969 137.351562 466.679688 137.351562 471.160156 L 137.351562 509.417969 L 111.054688 509.417969 L 111.054688 486.636719 C 111.054688 482.15625 107.417969 478.519531 102.9375 478.519531 C 98.457031 478.519531 94.820312 482.15625 94.820312 486.636719 L 94.820312 509.417969 L 71.652344 509.417969 L 71.652344 471.160156 C 71.652344 466.679688 68.015625 463.042969 63.535156 463.042969 C 59.054688 463.042969 55.417969 466.679688 55.417969 471.160156 L 55.417969 509.417969 L 16.238281 509.417969 L 16.238281 26.519531 L 560.554688 509.417969 Z M 481.171875 509.417969 " style=" stroke:none;fill-rule:nonzero;fill:rgb(0%,0%,0%);fill-opacity:1;" />
<path d="M 118.023438 430.035156 L 314.5625 430.035156 C 319.042969 430.039062 322.683594 426.410156 322.683594 421.921875 C 322.683594 419.265625 321.390625 416.777344 319.214844 415.261719 L 123.492188 235.933594 C 120.179688 232.914062 115.042969 233.15625 112.023438 236.46875 C 110.660156 237.960938 109.90625 239.914062 109.90625 241.9375 L 109.90625 421.917969 C 109.910156 426.398438 113.542969 430.035156 118.023438 430.035156 Z M 126.144531 260.28125 L 293.566406 413.800781 L 126.144531 413.800781 C 126.144531 413.800781 126.144531 260.28125 126.144531 260.28125 Z M 126.144531 260.28125 " style=" stroke:none;fill-rule:nonzero;fill:rgb(0%,0%,0%);fill-opacity:1;" />
</g>
</svg>